<svg xmlns="http://www.w3.org/2000/svg" version="1.1" xmlns:xlink="http://www.w3.org/1999/xlink" xmlns:svgjs="http://svgjs.dev/svgjs" width="1500" height="1500" viewBox="0 0 1500 1500"><rect width="1500" height="1500" fill="#000000"></rect><g transform="matrix(0.6666666666666666,0,0,0.6666666666666666,249.4976015723833,633.8756171714625)"><svg viewBox="0 0 396 92" data-background-color="#ffffff" preserveAspectRatio="xMidYMid meet" height="348" width="1500" xmlns="http://www.w3.org/2000/svg" xmlns:xlink="http://www.w3.org/1999/xlink"><g id="tight-bounds" transform="matrix(1,0,0,1,0.30170469786747844,0.049324225109671715)"><svg viewBox="0 0 395.52 91.90135154978068" height="91.90135154978068" width="395.52"><g><svg viewBox="0 0 568.1468558827773 132.01219643604801" height="91.90135154978068" width="395.52"><g transform="matrix(1,0,0,1,172.6268558827774,18.244811519019663)"><svg viewBox="0 0 395.52 95.52257339800869" height="95.52257339800869" width="395.52"><g id="textblocktransform"><svg viewBox="0 0 395.52 95.52257339800869" height="95.52257339800869" width="395.52" id="textblock"><g><svg viewBox="0 0 395.52 95.52257339800869" height="95.52257339800869" width="395.52"><g transform="matrix(1,0,0,1,0,0)"><svg width="395.52" viewBox="5.7 -37.35 195.83 47.3" height="95.52257339800869" data-palette-color="#7e91c6"><path d="M9.4-3.2L30.45-3.2 30.45 0 5.7 0 5.7-35 29.7-35 29.7-31.8 9.4-31.8 9.4-19.35 27.5-19.35 27.5-16.2 9.4-16.2 9.4-3.2ZM56.45-26.3L59.95-26.3 48.25 0 44.6 0 32.95-26.3 36.65-26.3 46.5-3.9 56.45-26.3ZM87.15-13.15L87.1-12.05 65.1-12.05Q65.4-7.95 68.25-5.43 71.1-2.9 75.45-2.9L75.45-2.9Q77.9-2.9 79.95-3.78 82-4.65 83.5-6.35L83.5-6.35 85.5-4.05Q83.75-1.95 81.12-0.85 78.5 0.25 75.35 0.25L75.35 0.25Q71.3 0.25 68.17-1.48 65.05-3.2 63.3-6.25 61.55-9.3 61.55-13.15L61.55-13.15Q61.55-17 63.22-20.05 64.9-23.1 67.82-24.8 70.75-26.5 74.4-26.5L74.4-26.5Q78.05-26.5 80.95-24.8 83.85-23.1 85.5-20.08 87.15-17.05 87.15-13.15L87.15-13.15ZM74.4-23.45Q70.6-23.45 68.02-21.03 65.45-18.6 65.1-14.7L65.1-14.7 83.75-14.7Q83.4-18.6 80.82-21.03 78.25-23.45 74.4-23.45L74.4-23.45ZM107.79-26.5Q112.74-26.5 115.67-23.63 118.59-20.75 118.59-15.25L118.59-15.25 118.59 0 115.04 0 115.04-14.9Q115.04-19 112.99-21.15 110.94-23.3 107.14-23.3L107.14-23.3Q102.89-23.3 100.42-20.78 97.94-18.25 97.94-13.8L97.94-13.8 97.94 0 94.39 0 94.39-26.3 97.79-26.3 97.79-21.45Q99.24-23.85 101.82-25.18 104.39-26.5 107.79-26.5L107.79-26.5ZM140.84-4.15L142.09-1.6Q141.09-0.7 139.62-0.23 138.14 0.25 136.54 0.25L136.54 0.25Q132.84 0.25 130.84-1.75 128.84-3.75 128.84-7.4L128.84-7.4 128.84-23.3 124.14-23.3 124.14-26.3 128.84-26.3 128.84-32.05 132.39-32.05 132.39-26.3 140.39-26.3 140.39-23.3 132.39-23.3 132.39-7.6Q132.39-5.25 133.57-4.03 134.74-2.8 136.94-2.8L136.94-2.8Q138.04-2.8 139.07-3.15 140.09-3.5 140.84-4.15L140.84-4.15ZM148.54 0L148.54-26.3 152.09-26.3 152.09 0 148.54 0ZM150.34-32.05Q149.24-32.05 148.49-32.8 147.74-33.55 147.74-34.6L147.74-34.6Q147.74-35.6 148.49-36.35 149.24-37.1 150.34-37.1L150.34-37.1Q151.44-37.1 152.19-36.38 152.94-35.65 152.94-34.65L152.94-34.65Q152.94-33.55 152.19-32.8 151.44-32.05 150.34-32.05L150.34-32.05ZM170.69-34.35Q168.39-34.35 167.21-33.1 166.04-31.85 166.04-29.4L166.04-29.4 166.04-26.3 174.14-26.3 174.14-23.3 166.14-23.3 166.14 0 162.59 0 162.59-23.3 157.89-23.3 157.89-26.3 162.59-26.3 162.59-29.55Q162.59-33.15 164.66-35.25 166.74-37.35 170.54-37.35L170.54-37.35Q172.04-37.35 173.44-36.93 174.84-36.5 175.79-35.7L175.79-35.7 174.59-33.05Q173.04-34.35 170.69-34.35L170.69-34.35ZM198.03-26.3L201.53-26.3 188.38 3.15Q186.78 6.85 184.68 8.4 182.58 9.95 179.63 9.95L179.63 9.95Q177.73 9.95 176.08 9.35 174.43 8.75 173.23 7.55L173.23 7.55 174.88 4.9Q176.88 6.9 179.68 6.9L179.68 6.9Q181.48 6.9 182.76 5.9 184.03 4.9 185.13 2.5L185.13 2.5 186.28-0.05 174.53-26.3 178.23-26.3 188.13-3.95 198.03-26.3Z" opacity="1" transform="matrix(1,0,0,1,0,0)" fill="#ffffff" class="wordmark-text-0" data-fill-palette-color="primary" id="text-0"></path></svg></g></svg></g></svg></g></svg></g><g><svg viewBox="0 0 150.07626884526908 132.01219643604801" height="132.01219643604801" width="150.07626884526908"><g><svg xmlns="http://www.w3.org/2000/svg" data-name="Layer 1" viewBox="0.9998491527979829 4 50.026853356765365 44.0053237145685" x="0" y="0" height="132.01219643604801" width="150.07626884526908" class="icon-icon-0" data-fill-palette-color="accent" id="icon-0"><path d="M50.59 8.35A1.53 1.53 0 0 0 49.38 8H40V7a3 3 0 0 0-3-3H36a3 3 0 0 0-3 3V8H19V7a3 3 0 0 0-3-3H15a3 3 0 0 0-3 3V8H3.52a2.75 2.75 0 0 0-2.08 0.52A1.47 1.47 0 0 0 1 9.59V45.94C1 47.28 2.44 48 3.8 48H49.13A1.76 1.76 0 0 0 51 45.94V9.59A1.64 1.64 0 0 0 50.59 8.35ZM35 7a1 1 0 0 1 1-1h1a1 1 0 0 1 1 1v4a1 1 0 0 1-1 1H36a1 1 0 0 1-1-1V7ZM14 7a1 1 0 0 1 1-1h1a1 1 0 0 1 1 1v4a1 1 0 0 1-1 1H15a1 1 0 0 1-1-1V7ZM49 45.94V46H3.8A1.75 1.75 0 0 1 3 45.81V10h9v1a3 3 0 0 0 3 3h1a3 3 0 0 0 3-3V10H33v1a3 3 0 0 0 3 3h1a3 3 0 0 0 3-3V10h9V45.94ZM10 16a3 3 0 0 0-3 3V41a3 3 0 0 0 3 3H41a3 3 0 0 0 3-3V19a3 3 0 0 0-3-3H10Zm32 3V41a1 1 0 0 1-1 1H10a1 1 0 0 1-1-1V19a1 1 0 0 1 1-1H41A1 1 0 0 1 42 19Zm-9.88 7.37a1 1 0 0 1-0.19 1.4l-8.31 6.36a1 1 0 0 1-0.61 0.21H22.88a1 1 0 0 1-0.66-0.39L19.8 30.69a1 1 0 0 1 1.6-1.2l1.81 2.43 7.51-5.74A1 1 0 0 1 32.12 26.37Z" fill="#ffffff" data-fill-palette-color="accent"></path></svg></g></svg></g></svg></g><defs></defs></svg><rect width="395.52" height="91.90135154978068" fill="none" stroke="none" visibility="hidden"></rect></g></svg></g></svg>