<svg xmlns="http://www.w3.org/2000/svg" version="1.1" xmlns:xlink="http://www.w3.org/1999/xlink" xmlns:svgjs="http://svgjs.dev/svgjs" width="1500" height="507" viewBox="0 0 1500 507"><g transform="matrix(1,0,0,1,-0.9090909090909918,0.21406993233873095)"><svg viewBox="0 0 396 134" data-background-color="#ffffff" preserveAspectRatio="xMidYMid meet" height="507" width="1500" xmlns="http://www.w3.org/2000/svg" xmlns:xlink="http://www.w3.org/1999/xlink"><g id="tight-bounds" transform="matrix(1,0,0,1,0.2400000000000091,-0.05657864089425857)"><svg viewBox="0 0 395.52 134.11315728178852" height="134.11315728178852" width="395.52"><g><svg viewBox="0 0 632.5591054375083 214.48851839999998" height="134.11315728178852" width="395.52"><g transform="matrix(1,0,0,1,237.03910543750828,59.48297250099564)"><svg viewBox="0 0 395.52 95.52257339800869" height="95.52257339800869" width="395.52"><g id="textblocktransform"><svg viewBox="0 0 395.52 95.52257339800869" height="95.52257339800869" width="395.52" id="textblock"><g><svg viewBox="0 0 395.52 95.52257339800869" height="95.52257339800869" width="395.52"><g transform="matrix(1,0,0,1,0,0)"><svg width="395.52" viewBox="5.7 -37.35 195.83 47.3" height="95.52257339800869" data-palette-color="#111111"><path d="M9.4-3.2L30.45-3.2 30.45 0 5.7 0 5.7-35 29.7-35 29.7-31.8 9.4-31.8 9.4-19.35 27.5-19.35 27.5-16.2 9.4-16.2 9.4-3.2ZM56.45-26.3L59.95-26.3 48.25 0 44.6 0 32.95-26.3 36.65-26.3 46.5-3.9 56.45-26.3ZM87.15-13.15L87.1-12.05 65.1-12.05Q65.4-7.95 68.25-5.43 71.1-2.9 75.45-2.9L75.45-2.9Q77.9-2.9 79.95-3.78 82-4.65 83.5-6.35L83.5-6.35 85.5-4.05Q83.75-1.95 81.12-0.85 78.5 0.25 75.35 0.25L75.35 0.25Q71.3 0.25 68.17-1.48 65.05-3.2 63.3-6.25 61.55-9.3 61.55-13.15L61.55-13.15Q61.55-17 63.22-20.05 64.9-23.1 67.82-24.8 70.75-26.5 74.4-26.5L74.4-26.5Q78.05-26.5 80.95-24.8 83.85-23.1 85.5-20.08 87.15-17.05 87.15-13.15L87.15-13.15ZM74.4-23.45Q70.6-23.45 68.02-21.03 65.45-18.6 65.1-14.7L65.1-14.7 83.75-14.7Q83.4-18.6 80.82-21.03 78.25-23.45 74.4-23.45L74.4-23.45ZM107.79-26.5Q112.74-26.5 115.67-23.63 118.59-20.75 118.59-15.25L118.59-15.25 118.59 0 115.04 0 115.04-14.9Q115.04-19 112.99-21.15 110.94-23.3 107.14-23.3L107.14-23.3Q102.89-23.3 100.42-20.78 97.94-18.25 97.94-13.8L97.94-13.8 97.94 0 94.39 0 94.39-26.3 97.79-26.3 97.79-21.45Q99.24-23.85 101.82-25.18 104.39-26.5 107.79-26.5L107.79-26.5ZM140.84-4.15L142.09-1.6Q141.09-0.7 139.62-0.23 138.14 0.25 136.54 0.25L136.54 0.25Q132.84 0.25 130.84-1.75 128.84-3.75 128.84-7.4L128.84-7.4 128.84-23.3 124.14-23.3 124.14-26.3 128.84-26.3 128.84-32.05 132.39-32.05 132.39-26.3 140.39-26.3 140.39-23.3 132.39-23.3 132.39-7.6Q132.39-5.25 133.57-4.03 134.74-2.8 136.94-2.8L136.94-2.8Q138.04-2.8 139.07-3.15 140.09-3.5 140.84-4.15L140.84-4.15ZM148.54 0L148.54-26.3 152.09-26.3 152.09 0 148.54 0ZM150.34-32.05Q149.24-32.05 148.49-32.8 147.74-33.55 147.74-34.6L147.74-34.6Q147.74-35.6 148.49-36.35 149.24-37.1 150.34-37.1L150.34-37.1Q151.44-37.1 152.19-36.38 152.94-35.65 152.94-34.65L152.94-34.65Q152.94-33.55 152.19-32.8 151.44-32.05 150.34-32.05L150.34-32.05ZM170.69-34.35Q168.39-34.35 167.21-33.1 166.04-31.85 166.04-29.4L166.04-29.4 166.04-26.3 174.14-26.3 174.14-23.3 166.14-23.3 166.14 0 162.59 0 162.59-23.3 157.89-23.3 157.89-26.3 162.59-26.3 162.59-29.55Q162.59-33.15 164.66-35.25 166.74-37.35 170.54-37.35L170.54-37.35Q172.04-37.35 173.44-36.93 174.84-36.5 175.79-35.7L175.79-35.7 174.59-33.05Q173.04-34.35 170.69-34.35L170.69-34.35ZM198.03-26.3L201.53-26.3 188.38 3.15Q186.78 6.85 184.68 8.4 182.58 9.95 179.63 9.95L179.63 9.95Q177.73 9.95 176.08 9.35 174.43 8.75 173.23 7.55L173.23 7.55 174.88 4.9Q176.88 6.9 179.68 6.9L179.68 6.9Q181.48 6.9 182.76 5.9 184.03 4.9 185.13 2.5L185.13 2.5 186.28-0.05 174.53-26.3 178.23-26.3 188.13-3.95 198.03-26.3Z" opacity="1" transform="matrix(1,0,0,1,0,0)" fill="#111111" class="wordmark-text-0" data-fill-palette-color="primary" id="text-0"></path></svg></g></svg></g></svg></g></svg></g><g><svg viewBox="0 0 214.48851839999998 214.48851839999998" height="214.48851839999998" width="214.48851839999998"><g><svg></svg></g><g id="icon-0"><svg viewBox="0 0 214.48851839999998 214.48851839999998" height="214.48851839999998" width="214.48851839999998"><g><rect width="195.02567136" height="195.02567136" x="9.731423519999993" y="9.731423519999993" fill="#f012be" data-fill-palette-color="accent"></rect><rect width="195.02567136" height="195.02567136" x="19.462847039999993" y="-5.329070518200751e-15" fill="#f012be" opacity="0.5" data-fill-palette-color="accent"></rect></g><g transform="matrix(1,0,0,1,41.45303679806692,27.80406719999999)"><svg viewBox="0 0 131.58244480386614 158.880384" height="158.880384" width="131.58244480386614"><g><svg xmlns="http://www.w3.org/2000/svg" xmlns:xlink="http://www.w3.org/1999/xlink" version="1.1" x="0" y="0" viewBox="19.263 15.172 42.5 51.31700000000001" enable-background="new 0 0 80 80" xml:space="preserve" height="158.880384" width="131.58244480386614" class="icon-cg-0" data-fill-palette-color="quaternary" id="cg-0"><g fill="#ffffff" data-fill-palette-color="quaternary"><path d="M40.512 30.654c1.929 0 3.497-1.569 3.497-3.498s-1.568-3.498-3.497-3.498c-1.928 0-3.496 1.569-3.496 3.498S38.584 30.654 40.512 30.654zM40.512 25.658c0.825 0 1.497 0.672 1.497 1.498s-0.672 1.498-1.497 1.498-1.496-0.672-1.496-1.498S39.687 25.658 40.512 25.658z" fill="#ffffff" data-fill-palette-color="quaternary"></path><path d="M53.572 19.422v-2.25c0-1.104-0.896-2-2-2s-2 0.896-2 2v1.816H31.885v-1.816c0-1.104-0.896-2-2-2s-2 0.896-2 2v2.139c-4.938 1.188-8.622 5.631-8.622 10.928v25c0 6.203 5.047 11.25 11.25 11.25h20c6.203 0 11.25-5.047 11.25-11.25v-25C61.763 25.097 58.291 20.76 53.572 19.422zM27.885 21.893v1.279c0 1.104 0.896 2 2 2s2-0.896 2-2v-1.684h17.688v1.684c0 1.104 0.896 2 2 2s2-0.896 2-2v-1.121c3.318 1.244 5.69 4.439 5.69 8.188v2.25h-37.5v-2.25C21.763 26.328 24.34 23.012 27.885 21.893zM50.513 63.988h-20c-4.825 0-8.75-3.925-8.75-8.75v-18.75h37.5v18.75C59.263 60.063 55.338 63.988 50.513 63.988z" fill="#ffffff" data-fill-palette-color="quaternary"></path><path d="M29.274 46.604l1.57 0.647c0.124 0.051 0.254 0.075 0.381 0.075 0.393 0 0.766-0.233 0.925-0.619 0.21-0.511-0.033-1.095-0.544-1.306l-1.57-0.647c-0.507-0.208-1.095 0.034-1.306 0.544C28.521 45.81 28.764 46.394 29.274 46.604z" fill="#ffffff" data-fill-palette-color="quaternary"></path><path d="M36.063 40.911c0.16 0.383 0.531 0.613 0.922 0.613 0.129 0 0.261-0.024 0.387-0.078 0.51-0.213 0.749-0.799 0.535-1.309L37.25 38.57c-0.213-0.509-0.8-0.751-1.309-0.535-0.51 0.213-0.749 0.799-0.535 1.309L36.063 40.911z" fill="#ffffff" data-fill-palette-color="quaternary"></path><path d="M44.787 41.4c0.123 0.05 0.25 0.073 0.375 0.073 0.395 0 0.77-0.235 0.927-0.625l0.638-1.575c0.207-0.512-0.04-1.095-0.552-1.302-0.513-0.208-1.095 0.039-1.302 0.552l-0.638 1.575C44.028 40.61 44.275 41.193 44.787 41.4z" fill="#ffffff" data-fill-palette-color="quaternary"></path><path d="M50.993 47.203c0.131 0 0.264-0.025 0.392-0.08l1.564-0.666c0.508-0.216 0.745-0.804 0.528-1.312-0.217-0.509-0.803-0.746-1.312-0.528l-1.564 0.666c-0.508 0.216-0.745 0.804-0.528 1.312C50.235 46.976 50.604 47.203 50.993 47.203z" fill="#ffffff" data-fill-palette-color="quaternary"></path><path d="M53.038 54.081l-1.579-0.633c-0.514-0.205-1.095 0.044-1.301 0.557-0.205 0.513 0.044 1.095 0.557 1.301l1.579 0.633c0.122 0.049 0.248 0.071 0.372 0.071 0.396 0 0.771-0.237 0.929-0.628C53.8 54.869 53.551 54.287 53.038 54.081z" fill="#ffffff" data-fill-palette-color="quaternary"></path><path d="M46.307 59.842c-0.219-0.507-0.808-0.741-1.314-0.521-0.507 0.219-0.74 0.808-0.521 1.314l0.675 1.562c0.163 0.378 0.531 0.604 0.918 0.604 0.133 0 0.268-0.026 0.396-0.082 0.507-0.219 0.74-0.808 0.521-1.314L46.307 59.842z" fill="#ffffff" data-fill-palette-color="quaternary"></path><path d="M37.582 59.446c-0.516-0.2-1.095 0.051-1.298 0.563l-0.624 1.582c-0.202 0.514 0.05 1.095 0.563 1.298 0.121 0.047 0.245 0.069 0.367 0.069 0.398 0 0.775-0.24 0.931-0.633l0.624-1.582C38.348 60.23 38.096 59.649 37.582 59.446z" fill="#ffffff" data-fill-palette-color="quaternary"></path><path d="M30.923 53.792l-1.559 0.682c-0.506 0.221-0.737 0.811-0.516 1.316 0.164 0.376 0.531 0.6 0.917 0.6 0.133 0 0.27-0.026 0.399-0.084l1.559-0.682c0.506-0.221 0.737-0.811 0.516-1.316C32.019 53.803 31.431 53.567 30.923 53.792z" fill="#ffffff" data-fill-palette-color="quaternary"></path><path d="M45.916 56.39c0.101-0.302 0.136-0.608 0.142-0.91l0.017-0.001-0.246-9.803-0.008 0.001c0.062-1.342-0.753-2.617-2.087-3.059-1.334-0.442-2.75 0.096-3.5 1.208l-0.004-0.003-6.046 7.72 0.013 0.01c-0.176 0.246-0.33 0.514-0.431 0.815-0.527 1.595 0.332 3.316 1.914 3.861l-0.001 0.004 6.359 2.105c0.001 0 0.001 0 0.001 0C43.646 58.87 45.385 57.997 45.916 56.39zM42.171 45.399l0.018-0.022 0.008-0.012-0.001-0.002c0.107-0.307 0.442-0.475 0.752-0.372 0.311 0.103 0.479 0.438 0.382 0.749v0.002c-0.001 0.002 0 0.006-0.001 0.009-0.003 0.007-0.009 0.013-0.011 0.02l0.077 2.752c0.002-0.001 0.002-0.002 0.004-0.002l0.089 3.531-5.183-1.716L42.171 45.399zM43.563 55.441c-0.003 0.055-0.003 0.109-0.021 0.163-0.099 0.298-0.42 0.46-0.718 0.361 0 0 0 0-0.001-0.001l-2.858-0.945-0.606-0.201v-0.001l-2.854-0.944c-0.002-0.001-0.004 0-0.006-0.001s-0.002-0.002-0.004-0.003l-0.01-0.003-0.002-0.004c-0.285-0.104-0.441-0.417-0.345-0.708 0.026-0.082 0.072-0.151 0.129-0.21l-0.002-0.006 0.4-0.512 6.884 2.278 0.017 0.665c0.001 0.009 0 0.019 0.001 0.027l0.001 0.04L43.563 55.441z" fill="#ffffff" data-fill-palette-color="quaternary"></path></g></svg></g></svg></g></svg></g></svg></g></svg></g><defs></defs></svg><rect width="395.52" height="134.11315728178852" fill="none" stroke="none" visibility="hidden"></rect></g></svg></g></svg>